<?xml version="1.0" encoding="UTF-8"?>
<svg width="32px" height="32px" viewBox="0 0 32 32" version="1.1" xmlns="http://www.w3.org/2000/svg" xmlns:xlink="http://www.w3.org/1999/xlink">
    <title>Edit</title>
    <defs>
        <filter id="filter-1">
            <feColorMatrix in="SourceGraphic" type="matrix" values="0 0 0 0 0.847000 0 0 0 0 0.847000 0 0 0 0 0.847000 0 0 0 1.000000 0"></feColorMatrix>
        </filter>
    </defs>
    <g id="Edit" stroke="none" stroke-width="1" fill="none" fill-rule="evenodd">
        <g filter="url(#filter-1)" id="edit">
            <g>
                <rect id="Rectangle" fill="#FFFFFF" fill-rule="nonzero" x="2" y="26" width="28" height="2"></rect>
                <path d="M25.4,9 C26.2,8.2 26.2,7 25.4,6.2 C25.4,6.2 25.4,6.2 25.4,6.2 L21.8,2.6 C21,1.8 19.8,1.8 19,2.6 C19,2.6 19,2.6 19,2.6 L4,17.6 L4,24 L10.4,24 L25.4,9 Z M20.4,4 L24,7.6 L21,10.6 L17.4,7 L20.4,4 Z M6,22 L6,18.4 L16,8.4 L19.6,12 L9.6,22 L6,22 Z" id="Shape" fill="#FFFFFF" fill-rule="nonzero"></path>
                <rect id="_Transparent_Rectangle_" x="0" y="0" width="32" height="32"></rect>
            </g>
        </g>
    </g>
</svg>