<?xml version="1.0" encoding="UTF-8"?>
<svg width="32px" height="32px" viewBox="0 0 32 32" version="1.1" xmlns="http://www.w3.org/2000/svg" xmlns:xlink="http://www.w3.org/1999/xlink">
    <title>Wifi</title>
    <defs>
        <filter id="filter-1">
            <feColorMatrix in="SourceGraphic" type="matrix" values="0 0 0 0 0.858824 0 0 0 0 0.858824 0 0 0 0 0.858824 0 0 0 1.000000 0"></feColorMatrix>
        </filter>
    </defs>
    <g id="Wifi" stroke="none" stroke-width="1" fill="none" fill-rule="evenodd">
        <g filter="url(#filter-1)" id="wifi">
            <g>
                <circle id="Oval" fill="#FFFFFF" fill-rule="nonzero" cx="16" cy="25" r="2"></circle>
                <path d="M10.47,19.2334 L11.8836,20.6465 C14.1849936,18.4547677 17.8001547,18.450679 20.1065,20.6372 L21.52,19.2236 C18.4332754,16.2549174 13.5513463,16.2593354 10.47,19.2336 L10.47,19.2334 Z" id="Path" fill="#FFFFFF" fill-rule="nonzero"></path>
                <path d="M6.229,14.9927 L7.6426,16.4062 C12.2844688,11.8683129 19.6994013,11.8638739 24.3467,16.3962 L25.76,14.9829 C20.3324473,9.66863108 11.6508081,9.67307607 6.2287,14.9929 L6.229,14.9927 Z" id="Path" fill="#FFFFFF" fill-rule="nonzero"></path>
                <path d="M30,10.7412 C22.2363008,3.08615767 9.76369923,3.08615767 2,10.7412 L2,10.7637 L3.4043,12.168 C10.383889,5.28142661 21.6003436,5.27697229 28.5854,12.158 L30,10.7432 L30,10.7412 Z" id="Path" fill="#FFFFFF" fill-rule="nonzero"></path>
                <rect id="_Transparent_Rectangle_" x="0" y="0" width="32" height="32"></rect>
            </g>
        </g>
    </g>
</svg>